<mxfile host="app.diagrams.net" modified="2023-03-01T15:06:49.758Z" agent="5.0 (Windows NT 10.0; Win64; x64) AppleWebKit/537.36 (KHTML, like Gecko) Chrome/110.0.0.0 Safari/537.36 Edg/110.0.1587.57" etag="J-CWDUkmWePAgsIR0sb7" version="20.8.23" type="github">
  <diagram name="Page-1" id="Nsl_G9au2hpInIdG-CxN">
    <mxGraphModel dx="1114" dy="594" grid="1" gridSize="10" guides="1" tooltips="1" connect="1" arrows="1" fold="1" page="1" pageScale="1" pageWidth="850" pageHeight="1100" math="0" shadow="0">
      <root>
        <mxCell id="0" />
        <mxCell id="1" parent="0" />
      </root>
    </mxGraphModel>
  </diagram>
</mxfile>
